<svg width="358" height="346" viewBox="0 0 358 346" fill="none" xmlns="http://www.w3.org/2000/svg">
<g opacity="0.6">
<path d="M45 318V306H53V318H63V302H69L49 284L29 302H35V318H45Z" fill="white"/>
<circle cx="49" cy="302" r="69.5" stroke="white" stroke-width="5"/>
<path d="M77 29H76V27C76 24.24 73.76 22 71 22C68.24 22 66 24.24 66 27V29H65C63.9 29 63 29.9 63 31V41C63 42.1 63.9 43 65 43H77C78.1 43 79 42.1 79 41V31C79 29.9 78.1 29 77 29ZM71 38C69.9 38 69 37.1 69 36C69 34.9 69.9 34 71 34C72.1 34 73 34.9 73 36C73 37.1 72.1 38 71 38ZM74.1 29H67.9V27C67.9 25.29 69.29 23.9 71 23.9C72.71 23.9 74.1 25.29 74.1 27V29Z" fill="white"/>
<circle cx="71" cy="33" r="32" stroke="white" stroke-width="2"/>
<path d="M335 119H330.83L334.07 115.76L332.66 114.34L328 119H326V117L330.66 112.34L329.24 110.93L326 114.17V110H324V114.17L320.76 110.93L319.34 112.34L324 117V119H322L317.34 114.34L315.93 115.76L319.17 119H315V121H319.17L315.93 124.24L317.34 125.66L322 121H324V123L319.34 127.66L320.76 129.07L324 125.83V130H326V125.83L329.24 129.07L330.66 127.66L326 123V121H328L332.66 125.66L334.07 124.24L330.83 121H335V119Z" fill="white"/>
<circle cx="325" cy="120" r="32" stroke="white" stroke-width="2"/>
<path d="M152.311 157.896H135.979V168.103H152.311V157.896Z" fill="white"/>
<path d="M156.713 159.927L153.108 161.443V164.6L156.713 166.115H158.02V159.927H156.713Z" fill="white"/>
<circle cx="147" cy="163" r="32" stroke="white" stroke-width="2"/>
<path d="M311 284C311 279 307 275 302 275C297 275 293 279 293 284C293 287.1 294.6 289.9 297 291.5V294C297 295.3 297.8 296.4 299 296.8V297C299 298.7 300.3 300 302 300C303.7 300 305 298.7 305 297V296.8C306.2 296.4 307 295.3 307 294V291.5C309.4 289.9 311 287.1 311 284ZM295 284C295 280.1 298.1 277 302 277C305.9 277 309 280.1 309 284C309 287.5 306.4 290.4 303 290.9V288.4L304.7 286.7C305.1 286.3 305.1 285.7 304.7 285.3C304.3 284.9 303.7 284.9 303.3 285.3L302 286.6L300.7 285.3C300.3 284.9 299.7 284.9 299.3 285.3C298.9 285.7 298.9 286.3 299.3 286.7L301 288.4V290.9C297.6 290.4 295 287.5 295 284ZM302 298C301.4 298 301 297.6 301 297H303C303 297.6 302.6 298 302 298ZM305 294C305 294.6 304.6 295 304 295H300C299.4 295 299 294.6 299 294V292.5C299.9 292.8 300.9 293 302 293C303.1 293 304.1 292.8 305 292.5V294Z" fill="white"/>
<circle cx="302" cy="288" r="32" stroke="white" stroke-width="2"/>
<path d="M56 233L68 65" stroke="white" stroke-width="2" stroke-linecap="round"/>
<path d="M119 308L271 297" stroke="white" stroke-width="2" stroke-linecap="round"/>
<path d="M89 244L134 192" stroke="white" stroke-width="2" stroke-linecap="round"/>
<path d="M113 274.5L303 145" stroke="white" stroke-width="2" stroke-linecap="round"/>
</g>
</svg>
