<svg id="Group" xmlns="http://www.w3.org/2000/svg" width="34" height="34" viewBox="0 0 34 34">
  <path id="Path" d="M0,0H34V34H0Z" fill="none"/>
  <path id="Path-2" data-name="Path" d="M17,2.833h4.25A1.417,1.417,0,0,1,22.667,4.25V19.833a2.833,2.833,0,0,1-5.667,0V1.417A1.417,1.417,0,0,0,15.583,0H1.417A1.417,1.417,0,0,0,0,1.417v17a4.25,4.25,0,0,0,4.25,4.25H19.833" transform="translate(5.667 5.667)" fill="none" stroke="#2ecf9a" stroke-linecap="round" stroke-linejoin="round" stroke-miterlimit="10" stroke-width="2.125"/>
  <path id="Path-3" data-name="Path" d="M0,.708H5.667" transform="translate(11.333 10.625)" fill="none" stroke="#2ecf9a" stroke-linecap="round" stroke-linejoin="round" stroke-miterlimit="10" stroke-width="2.125"/>
  <path id="Path-4" data-name="Path" d="M0,.708H5.667" transform="translate(11.333 16.292)" fill="none" stroke="#2ecf9a" stroke-linecap="round" stroke-linejoin="round" stroke-miterlimit="10" stroke-width="2.125"/>
  <path id="Path-5" data-name="Path" d="M0,.708H5.667" transform="translate(11.333 21.958)" fill="none" stroke="#2ecf9a" stroke-linecap="round" stroke-linejoin="round" stroke-miterlimit="10" stroke-width="2.125"/>
</svg>
