<svg id="Logo" xmlns="http://www.w3.org/2000/svg" viewBox="0 0 600 484"><defs><style>.cls-1{fill:#0a146e;}</style></defs><title>XELogo_RGB</title><path class="cls-1" d="M230.65,362.35H164.16a2.42,2.42,0,0,1-2-1.14l-43-69.39-43,69.39a2.4,2.4,0,0,1-2,1.14H7.63a2.41,2.41,0,0,1-2-3.75L85.46,240,6.61,125.42a2.41,2.41,0,0,1,2-3.77H75.49a2.4,2.4,0,0,1,2,1.12L119.14,189l41.36-65.83a3.24,3.24,0,0,1,2.75-1.51h66.43a2.4,2.4,0,0,1,2,3.77L152.81,240,232.65,358.6A2.41,2.41,0,0,1,230.65,362.35ZM358.83,6a235.32,235.32,0,0,0-173.17,75.7,1.22,1.22,0,0,0,.9,2H197a2.39,2.39,0,0,0,1.56-.59A213.55,213.55,0,0,1,339.25,30.71c117.8,0,213.29,94.6,213.29,211.29S457.05,453.29,339.25,453.29a213.62,213.62,0,0,1-140.66-52.48,2.39,2.39,0,0,0-1.56-.59H186.56a1.22,1.22,0,0,0-.9,2A235.32,235.32,0,0,0,358.83,478c130.31,0,236-105.65,236-236S489.14,6,358.83,6Zm93.58,257.39H274.57c1.56,27,25.37,50.22,59.88,50.22,26.58,0,43.52-10.57,53.8-26.81a2.4,2.4,0,0,1,3.14-.89l44.95,23.33a2.41,2.41,0,0,1,.92,3.46c-21.4,32.34-58.16,53.71-103.16,53.71h-.33c-71.24,0-120-52.13-120-124.45s48.78-124.45,120-124.45S456.32,173.27,456.32,242a122.25,122.25,0,0,1-1.38,18.77h0C454.71,262,453.84,263.43,452.41,263.43Zm-55.87-48.72c-3.72-15.3-21.67-44.37-59.89-44.37-36.71,0-55.59,23-60.07,44.37Z"/></svg>